<?xml version="1.0" standalone="no"?>
<!DOCTYPE svg PUBLIC "-//W3C//DTD SVG 1.1//EN"
  "http://www.w3.org/Graphics/SVG/1.1/DTD/svg11.dtd">
<svg width="177mm" height="24.68299913406372mm" viewBox="-90.05899810791016 -17.24799919128418 177 24.68299913406372" xmlns="http://www.w3.org/2000/svg" version="1.1">
	<title>svgOutput</title>
	<desc>made with tinkercad</desc>
<path d="M 53.88800048828125 2.3980000019073486 L 53.53099822998047 2.8440001010894775 L 53.24800109863281 3.158444404602051 L 53.14400100708008 3.2739999294281006 L 52.72800064086914 3.687000036239624 L 52.30809020996094 4.059000015258789 L 52.28099822998047 4.083000183105469 L 52.2646369934082 4.0960001945495605 L 51.80400085449219 4.461999893188477 L 51.29600143432617 4.830999851226807 L 50.755001068115234 5.183000087738037 L 50.180999755859375 5.519999980926514 L 49.573001861572266 5.841000080108643 L 49.152000427246094 6.041632652282715 L 48.93299865722656 6.145999908447266 L 48.2623291015625 6.434000015258789 L 48.2599983215332 6.434999942779541 L 48.2599983215332 6.434000015258789 L 48.2599983215332 4.950773239135742 L 48.2599983215332 4.8726630210876465 L 48.2599983215332 4.839000225067139 L 48.63199996948242 4.573999881744385 L 48.981998443603516 4.293000221252441 L 49.152000427246094 4.13812255859375 L 49.19823455810547 4.0960001945495605 L 49.23884963989258 4.059000015258789 L 49.30799865722656 3.996000051498413 L 49.611000061035156 3.683000087738037 L 49.891998291015625 3.3540000915527344 L 50.14899826049805 3.009999990463257 L 50.380001068115234 2.6510000228881836 L 50.595001220703125 2.2809998989105225 L 50.79199981689453 1.8980000019073486 L 50.972999572753906 1.503999948501587 L 51.13600158691406 1.097000002861023 L 51.28200149536133 0.6790000200271608 L 51.41299819946289 0.2500000000000001 L 51.47233963012695 0.024000000208616368 L 49.152000427246094 0.024000000208616368 L 48.2599983215332 0.024000000208616368 L 46.03799819946289 0.024000000208616368 L 45.806941986083984 0.024000000208616368 L 45.58505630493164 0.024000000208616368 L 45.422325134277344 0.024000000208616368 L 45.313316345214844 0.024000000208616368 L 45.24494934082031 0.024000000208616368 L 45.21705627441406 0.024000000208616368 L 45.04899978637695 0.44100001454353344 L 44.80699920654297 0.9559999704360963 L 44.5369987487793 1.4529999494552612 L 44.23899841308594 1.934000015258789 L 43.9119987487793 2.3980000019073486 L 43.555999755859375 2.8440001010894775 L 43.16899871826172 3.2739999294281006 L 42.75199890136719 3.687000036239624 L 42.33209228515625 4.059000015258789 L 42.30500030517578 4.083000183105469 L 42.288673400878906 4.0960001945495605 L 41.82899856567383 4.461999893188477 L 41.31999969482422 4.830999851226807 L 40.959999084472656 5.065232753753662 L 40.77899932861328 5.183000087738037 L 40.20500183105469 5.519999980926514 L 39.597999572753906 5.841000080108643 L 38.95800018310547 6.145999908447266 L 38.856346130371094 6.189651966094971 L 38.52471923828125 6.332059860229492 L 38.28732681274414 6.434000015258789 L 38.28499984741211 6.434999942779541 L 38.28499984741211 6.434000015258789 L 38.28499984741211 6.316420555114746 L 38.28499984741211 5.945718765258789 L 38.28499984741211 5.5286664962768555 L 38.28499984741211 5.270424842834473 L 38.28499984741211 5.073996543884277 L 38.28499984741211 4.949862003326416 L 38.28499984741211 4.873518466949463 L 38.28499984741211 4.839000225067139 L 38.65700149536133 4.573999881744385 L 39.00600051879883 4.293000221252441 L 39.262847900390625 4.059000015258789 L 39.332000732421875 3.996000051498413 L 39.63600158691406 3.683000087738037 L 39.91600036621094 3.3540000915527344 L 40.17399978637695 3.009999990463257 L 40.404998779296875 2.6510000228881836 L 40.61899948120117 2.2809998989105225 L 40.81700134277344 1.8980000019073486 L 40.959999084472656 1.5849888324737549 L 40.99700164794922 1.503999948501587 L 41.15999984741211 1.097000002861023 L 41.30699920654297 0.6790000200271608 L 41.4370002746582 0.2500000000000001 L 41.49685287475586 0.024000000208616368 L 40.959999084472656 0.024000000208616368 L 38.28499984741211 0.024000000208616368 L 27.68600082397461 0.024000000208616368 L 25.027000427246094 0.024000000208616368 L 25.027000427246094 1.8949999809265137 L 24.990787506103516 2.0480000972747803 L 24.94700050354004 2.2330000400543213 L 24.708999633789062 2.562999963760376 L 24.576000213623047 2.6698081493377686 L 24.31800079345703 2.877000093460083 L 23.959604263305664 3.072000026702881 L 23.78499984741211 3.1670000553131104 L 23.552000045776367 3.2578065395355225 L 23.12299919128418 3.424999952316284 L 22.527999877929688 3.5936856269836426 L 22.347000122070312 3.6449999809265137 L 21.503999710083008 3.8174757957458496 L 21.476999282836914 3.822999954223633 L 20.992000579833984 3.8898611068725586 L 20.534000396728516 3.953000068664551 L 20.479999542236328 3.9573004245758057 L 19.968000411987305 3.998074531555176 L 19.54199981689453 4.0320000648498535 L 19.45599937438965 4.03428316116333 L 18.944000244140625 4.047875881195068 L 18.524999618530273 4.059000015258789 L 18.43199920654297 4.059000015258789 L 17.408000946044922 4.059000015258789 L 16.384000778198242 4.059000015258789 L 15.359999656677246 4.059000015258789 L 14.336000442504883 4.059000015258789 L 13.312000274658203 4.059000015258789 L 12.288000106811523 4.059000015258789 L 11.263999938964844 4.059000015258789 L 10.239999771118164 4.059000015258789 L 9.215999603271484 4.059000015258789 L 8.192000389099121 4.059000015258789 L 7.168000221252441 4.059000015258789 L 6.144000053405762 4.059000015258789 L 5.119999885559082 4.059000015258789 L 4.0960001945495605 4.059000015258789 L 3.072000026702881 4.059000015258789 L 2.0480000972747803 4.059000015258789 L 1.0240000486373901 4.059000015258789 L 0 4.059000015258789 L -1.0240000486373901 4.059000015258789 L -2.0480000972747803 4.059000015258789 L -3.072000026702881 4.059000015258789 L -4.0960001945495605 4.059000015258789 L -5.119999885559082 4.059000015258789 L -6.144000053405762 4.059000015258789 L -7.168000221252441 4.059000015258789 L -8.192000389099121 4.059000015258789 L -9.215999603271484 4.059000015258789 L -10.239999771118164 4.059000015258789 L -11.263999938964844 4.059000015258789 L -12.288000106811523 4.059000015258789 L -13.312000274658203 4.059000015258789 L -14.336000442504883 4.059000015258789 L -15.359999656677246 4.059000015258789 L -16.384000778198242 4.059000015258789 L -17.408000946044922 4.059000015258789 L -18.43199920654297 4.059000015258789 L -19.45599937438965 4.059000015258789 L -20.479999542236328 4.059000015258789 L -21.503999710083008 4.059000015258789 L -22.34000015258789 4.059000015258789 L -22.527999877929688 4.054008960723877 L -23.040000915527344 4.0404157638549805 L -23.35700035095215 4.0320000648498535 L -23.552000045776367 4.016470909118652 L -24.06399917602539 3.975696563720703 L -24.349000930786133 3.953000068664551 L -24.576000213623047 3.921706199645996 L -25.29199981689453 3.822999954223633 L -25.600000381469727 3.759984016418457 L -26.16200065612793 3.6449999809265137 L -26.624000549316406 3.5138516426086426 L -26.937000274658203 3.424999952316284 L -27.150999069213867 3.341723918914795 L -27.600000381469727 3.1670000553131104 L -27.648000717163086 3.140883684158325 L -27.77460289001465 3.072000026702881 L -28.132999420166016 2.877000093460083 L -28.523000717163086 2.562999963760376 L -28.525163650512695 2.559999942779541 L -28.672000885009766 2.356403350830078 L -28.76099967956543 2.2330000400543213 L -28.841999053955078 1.8949999809265137 L -28.841999053955078 0.024000000208616368 L -41.40299987792969 0.024000000208616368 L -44.62213134765625 0.024000000208616368 L -44.55500030517578 0.2739999890327455 L -44.42499923706055 0.697000026702881 L -44.27799987792969 1.1150000095367432 L -44.1150016784668 1.5210000276565552 L -43.935001373291016 1.9160000085830688 L -43.73699951171875 2.2980000972747803 L -43.52299880981445 2.6689999103546143 L -43.29100036621094 3.0280001163482666 L -43.034000396728516 3.377000093460083 L -42.75400161743164 3.7090001106262207 L -42.45000076293945 4.0229997634887695 L -42.36960220336914 4.0960001945495605 L -42.124000549316406 4.318999767303467 L -41.775001525878906 4.5970001220703125 L -41.40299987792969 4.85699987411499 L -41.40299987792969 6.434000015258789 L -42.07600021362305 6.151000022888184 L -42.715999603271484 5.85099983215332 L -43.323001861572266 5.5329999923706055 L -43.89699935913086 5.198999881744385 L -44.4379997253418 4.8480000495910645 L -44.946998596191406 4.480000019073486 L -45.055999755859375 4.39321231842041 L -45.42300033569336 4.10099983215332 L -45.869998931884766 3.7049999237060547 L -46.2869987487793 3.2920000553131104 L -46.67399978637695 2.861999988555908 L -47.029998779296875 2.4149999618530273 L -47.356998443603516 1.9520000219345093 L -47.654998779296875 1.4769999980926514 L -47.92499923706055 0.9829999804496766 L -48.16699981689453 0.47200000286102306 L -48.34823226928711 0.024000000208616368 L -49.152000427246094 0.024000000208616368 L -49.15599822998047 0.024000000208616368 L -51.37799835205078 0.024000000208616368 L -53.24800109863281 0.024000000208616368 L -54.59754943847656 0.024000000208616368 L -54.53099822998047 0.2739999890327455 L -54.400001525878906 0.697000026702881 L -54.25400161743164 1.1150000095367432 L -54.090999603271484 1.5210000276565552 L -53.90999984741211 1.9160000085830688 L -53.7130012512207 2.2980000972747803 L -53.49800109863281 2.6689999103546143 L -53.266998291015625 3.0280001163482666 L -53.24800109863281 3.0538015365600586 L -53.0099983215332 3.377000093460083 L -52.729000091552734 3.7090001106262207 L -52.42599868774414 4.0229997634887695 L -52.34560012817383 4.0960001945495605 L -52.099998474121094 4.318999767303467 L -51.75 4.5970001220703125 L -51.37799835205078 4.85699987411499 L -51.37799835205078 6.434000015258789 L -52.05099868774414 6.151000022888184 L -52.691001892089844 5.85099983215332 L -53.29899978637695 5.5329999923706055 L -53.87300109863281 5.198999881744385 L -54.41400146484375 4.8480000495910645 L -54.922000885009766 4.480000019073486 L -55.39899826049805 4.10099983215332 L -55.40464401245117 4.0960001945495605 L -55.84600067138672 3.7049999237060547 L -56.262001037597656 3.2920000553131104 L -56.64899826049805 2.861999988555908 L -57.00600051879883 2.4149999618530273 L -57.33300018310547 1.9520000219345093 L -57.34400177001953 1.9344664812088013 L -57.63100051879883 1.4769999980926514 L -57.9010009765625 0.9829999804496766 L -58.141998291015625 0.47200000286102306 L -58.3232307434082 0.024000000208616368 L -59.13199996948242 0.024000000208616368 L -61.354000091552734 0.024000000208616368 L -64.57354736328125 0.024000000208616368 L -64.50700378417969 0.2739999890327455 L -64.3759994506836 0.697000026702881 L -64.2300033569336 1.1150000095367432 L -64.06600189208984 1.5210000276565552 L -63.88600158691406 1.9160000085830688 L -63.6879997253418 2.2980000972747803 L -63.4739990234375 2.6689999103546143 L -63.24300003051758 3.0280001163482666 L -62.98500061035156 3.377000093460083 L -62.70500183105469 3.7090001106262207 L -62.402000427246094 4.0229997634887695 L -62.321353912353516 4.0960001945495605 L -62.07500076293945 4.318999767303467 L -61.72600173950195 4.5970001220703125 L -61.354000091552734 4.85699987411499 L -61.354000091552734 6.434000015258789 L -62.027000427246094 6.151000022888184 L -62.66699981689453 5.85099983215332 L -63.27399826049805 5.5329999923706055 L -63.847999572753906 5.198999881744385 L -64.38999938964844 4.8480000495910645 L -64.89800262451172 4.480000019073486 L -65.375 4.10099983215332 L -65.38063049316406 4.0960001945495605 L -65.53600311279297 3.9580492973327637 L -65.82099914550781 3.7049999237060547 L -66.23799896240234 3.2920000553131104 L -66.625 2.861999988555908 L -66.98200225830078 2.4149999618530273 L -67.30799865722656 1.9520000219345093 L -67.60600280761719 1.4769999980926514 L -67.8759994506836 0.9829999804496766 L -68.11799621582031 0.47200000286102306 L -68.29923248291016 0.024000000208616368 L -69.10800170898438 0.024000000208616368 L -71.3290023803711 0.024000000208616368 L -73.72799682617188 0.024000000208616368 L -74.54913330078125 0.024000000208616368 L -74.48200225830078 0.2739999890327455 L -74.35199737548828 0.697000026702881 L -74.20500183105469 1.1150000095367432 L -74.04199981689453 1.5210000276565552 L -73.86100006103516 1.9160000085830688 L -73.72799682617188 2.173898458480835 L -73.66400146484375 2.2980000972747803 L -73.44999694824219 2.6689999103546143 L -73.21800231933594 3.0280001163482666 L -72.96099853515625 3.377000093460083 L -72.68099975585938 3.7090001106262207 L -72.37699890136719 4.0229997634887695 L -72.0510025024414 4.318999767303467 L -71.7020034790039 4.5970001220703125 L -71.3290023803711 4.85699987411499 L -71.3290023803711 6.434000015258789 L -72.00199890136719 6.151000022888184 L -72.64299774169922 5.85099983215332 L -73.25 5.5329999923706055 L -73.72799682617188 5.2548604011535645 L -73.8239974975586 5.198999881744385 L -74.36499786376953 4.8480000495910645 L -74.87300109863281 4.480000019073486 L -75.3499984741211 4.10099983215332 L -75.35564422607422 4.0960001945495605 L -75.7969970703125 3.7049999237060547 L -76.21399688720703 3.2920000553131104 L -76.5999984741211 2.861999988555908 L -76.95700073242188 2.4149999618530273 L -77.28399658203125 1.9520000219345093 L -77.58200073242188 1.4769999980926514 L -77.85199737548828 0.9829999804496766 L -78.09400177001953 0.47200000286102306 L -78.27523040771484 0.024000000208616368 L -79.08300018310547 0.024000000208616368 L -81.30500030517578 0.024000000208616368 L -81.91999816894531 0.024000000208616368 L -84.52455139160156 0.024000000208616368 L -84.45800018310547 0.2739999890327455 L -84.3270034790039 0.697000026702881 L -84.18099975585938 1.1150000095367432 L -84.01699829101562 1.5210000276565552 L -83.83699798583984 1.9160000085830688 L -83.63999938964844 2.2980000972747803 L -83.42500305175781 2.6689999103546143 L -83.19400024414062 3.0280001163482666 L -82.93699645996094 3.377000093460083 L -82.65599822998047 3.7090001106262207 L -82.35299682617188 4.0229997634887695 L -82.27259826660156 4.0960001945495605 L -82.0270004272461 4.318999767303467 L -81.91999816894531 4.403988361358643 L -81.677001953125 4.5970001220703125 L -81.30500030517578 4.85699987411499 L -81.30500030517578 6.434000015258789 L -81.91999816894531 6.175389289855957 L -81.97799682617188 6.151000022888184 L -82.61799621582031 5.85099983215332 L -83.2249984741211 5.5329999923706055 L -83.80000305175781 5.198999881744385 L -84.34100341796875 4.8480000495910645 L -84.8489990234375 4.480000019073486 L -85.32599639892578 4.10099983215332 L -85.33163452148438 4.0960001945495605 L -85.77200317382812 3.7049999237060547 L -86.01599884033203 3.4633405208587646 L -86.18900299072266 3.2920000553131104 L -86.57599639892578 2.861999988555908 L -86.93299865722656 2.4149999618530273 L -87.26000213623047 1.9520000219345093 L -87.55799865722656 1.4769999980926514 L -87.8270034790039 0.9829999804496766 L -88.06900024414062 0.47200000286102306 L -88.25994110107422 1.1102230246251565e-16 L -88.28299713134766 -0.05700000002980221 L -88.46900177001953 -0.602999985218048 L -88.62699890136719 -1.1679999828338623 L -88.75900268554688 -1.7450000047683716 L -88.86699676513672 -2.3380000591278076 L -88.95099639892578 -2.947999954223633 L -89.01100158691406 -3.575000047683716 L -89.04012298583984 -4.0960001945495605 L -89.0469970703125 -4.218999862670898 L -89.05899810791016 -4.880000114440918 L -89.0469970703125 -5.546000003814697 L -89.01100158691406 -6.195000171661377 L -88.95099639892578 -6.824999809265137 L -88.86699676513672 -7.438000202178955 L -88.75900268554688 -8.032999992370605 L -88.72262573242188 -8.192000389099121 L -88.62699890136719 -8.609999656677246 L -88.46900177001953 -9.175000190734863 L -88.28299713134766 -9.722999572753906 L -88.06900024414062 -10.255000114440918 L -87.8270034790039 -10.769000053405762 L -87.55799865722656 -11.267000198364258 L -87.26000213623047 -11.748000144958496 L -86.93299865722656 -12.211000442504883 L -86.87150573730469 -12.288000106811523 L -86.57599639892578 -12.657999992370605 L -86.18900299072266 -13.088000297546387 L -86.01599884033203 -13.259340286254883 L -85.77200317382812 -13.50100040435791 L -85.32599639892578 -13.897000312805176 L -84.8489990234375 -14.276000022888184 L -84.34100341796875 -14.644000053405762 L -83.80000305175781 -14.996999740600586 L -83.2249984741211 -15.333999633789062 L -82.61799621582031 -15.654999732971191 L -81.97799682617188 -15.958999633789062 L -81.91999816894531 -15.983906745910645 L -81.30500030517578 -16.24799919128418 L -81.30500030517578 -14.685663223266602 L -81.30500030517578 -14.652000427246094 L -81.677001953125 -14.38700008392334 L -81.91999816894531 -14.191905975341797 L -82.0270004272461 -14.105999946594238 L -82.35299682617188 -13.8100004196167 L -82.65599822998047 -13.496999740600586 L -82.93699645996094 -13.168000221252441 L -83.19400024414062 -12.822999954223633 L -83.42500305175781 -12.46500015258789 L -83.52757263183594 -12.288000106811523 L -83.63999938964844 -12.093999862670898 L -83.83699798583984 -11.711999893188477 L -84.01699829101562 -11.317000389099121 L -84.18099975585938 -10.91100025177002 L -84.3270034790039 -10.491999626159668 L -84.45800018310547 -10.064000129699707 L -84.51734161376953 -9.838000297546387 L -81.91999816894531 -9.838000297546387 L -81.30500030517578 -9.838000297546387 L -79.08300018310547 -9.838000297546387 L -78.35675811767578 -9.838000297546387 L -78.29032897949219 -9.838000297546387 L -78.2617416381836 -9.838000297546387 L -78.09400177001953 -10.255000114440918 L -77.85199737548828 -10.769000053405762 L -77.8239974975586 -10.82064437866211 L -77.58200073242188 -11.267000198364258 L -77.28399658203125 -11.748000144958496 L -76.95700073242188 -12.211000442504883 L -76.89550018310547 -12.288000106811523 L -76.5999984741211 -12.657999992370605 L -76.21399688720703 -13.088000297546387 L -75.7969970703125 -13.50100040435791 L -75.3499984741211 -13.897000312805176 L -74.87300109863281 -14.276000022888184 L -74.36499786376953 -14.644000053405762 L -73.8239974975586 -14.996999740600586 L -73.72799682617188 -15.053361892700195 L -73.25 -15.333999633789062 L -72.64299774169922 -15.654999732971191 L -72.00199890136719 -15.958999633789062 L -71.3290023803711 -16.24799919128418 L -71.3290023803711 -16.142061233520508 L -71.3290023803711 -15.737922668457031 L -71.3290023803711 -15.358817100524902 L -71.3290023803711 -15.085599899291992 L -71.3290023803711 -14.889026641845703 L -71.3290023803711 -14.761558532714844 L -71.3290023803711 -14.687323570251465 L -71.3290023803711 -14.652000427246094 L -71.7020034790039 -14.38700008392334 L -72.0510025024414 -14.105999946594238 L -72.37699890136719 -13.8100004196167 L -72.68099975585938 -13.496999740600586 L -72.96099853515625 -13.168000221252441 L -73.21800231933594 -12.822999954223633 L -73.44999694824219 -12.46500015258789 L -73.55209350585938 -12.288000106811523 L -73.66400146484375 -12.093999862670898 L -73.72799682617188 -11.969898223876953 L -73.86100006103516 -11.711999893188477 L -74.04199981689453 -11.317000389099121 L -74.20500183105469 -10.91100025177002 L -74.35199737548828 -10.491999626159668 L -74.48200225830078 -10.064000129699707 L -74.54185485839844 -9.838000297546387 L -73.72799682617188 -9.838000297546387 L -71.3290023803711 -9.838000297546387 L -69.10800170898438 -9.838000297546387 L -68.87721252441406 -9.838000297546387 L -68.65283966064453 -9.838000297546387 L -68.49132537841797 -9.838000297546387 L -68.3807601928711 -9.838000297546387 L -68.3143310546875 -9.838000297546387 L -68.2857437133789 -9.838000297546387 L -68.11799621582031 -10.255000114440918 L -67.8759994506836 -10.769000053405762 L -67.60600280761719 -11.267000198364258 L -67.30799865722656 -11.748000144958496 L -66.98200225830078 -12.211000442504883 L -66.92050170898438 -12.288000106811523 L -66.625 -12.657999992370605 L -66.23799896240234 -13.088000297546387 L -65.82099914550781 -13.50100040435791 L -65.53600311279297 -13.754049301147461 L -65.375 -13.897000312805176 L -64.89800262451172 -14.276000022888184 L -64.38999938964844 -14.644000053405762 L -63.847999572753906 -14.996999740600586 L -63.27399826049805 -15.333999633789062 L -62.66699981689453 -15.654999732971191 L -62.027000427246094 -15.958999633789062 L -61.354000091552734 -16.24799919128418 L -61.354000091552734 -16.14032745361328 L -61.354000091552734 -15.750540733337402 L -61.354000091552734 -15.34898853302002 L -61.354000091552734 -15.08442497253418 L -61.354000091552734 -14.892587661743164 L -61.354000091552734 -14.758647918701172 L -61.354000091552734 -14.686518669128418 L -61.354000091552734 -14.652000427246094 L -61.72600173950195 -14.38700008392334 L -62.07500076293945 -14.105999946594238 L -62.402000427246094 -13.8100004196167 L -62.70500183105469 -13.496999740600586 L -62.98500061035156 -13.168000221252441 L -63.24300003051758 -12.822999954223633 L -63.4739990234375 -12.46500015258789 L -63.57609558105469 -12.288000106811523 L -63.6879997253418 -12.093999862670898 L -63.88600158691406 -11.711999893188477 L -64.06600189208984 -11.317000389099121 L -64.2300033569336 -10.91100025177002 L -64.3759994506836 -10.491999626159668 L -64.50700378417969 -10.064000129699707 L -64.56633758544922 -9.838000297546387 L -61.354000091552734 -9.838000297546387 L -59.13199996948242 -9.838000297546387 L -58.516326904296875 -9.838000297546387 L -58.405757904052734 -9.838000297546387 L -58.337520599365234 -9.838000297546387 L -58.30974197387695 -9.838000297546387 L -58.141998291015625 -10.255000114440918 L -57.9010009765625 -10.769000053405762 L -57.63100051879883 -11.267000198364258 L -57.34400177001953 -11.730244636535645 L -57.33300018310547 -11.748000144958496 L -57.00600051879883 -12.211000442504883 L -56.94450378417969 -12.288000106811523 L -56.64899826049805 -12.657999992370605 L -56.262001037597656 -13.088000297546387 L -55.84600067138672 -13.50100040435791 L -55.39899826049805 -13.897000312805176 L -54.922000885009766 -14.276000022888184 L -54.41400146484375 -14.644000053405762 L -53.87300109863281 -14.996999740600586 L -53.29899978637695 -15.333999633789062 L -53.24800109863281 -15.360925674438477 L -52.691001892089844 -15.654999732971191 L -52.05099868774414 -15.958999633789062 L -51.37799835205078 -16.24799919128418 L -51.37799835205078 -15.358817100524902 L -51.37799835205078 -15.078775405883789 L -51.37799835205078 -14.892587661743164 L -51.37799835205078 -14.761558532714844 L -51.37799835205078 -14.685663223266602 L -51.37799835205078 -14.652000427246094 L -51.75 -14.38700008392334 L -52.099998474121094 -14.105999946594238 L -52.42599868774414 -13.8100004196167 L -52.729000091552734 -13.496999740600586 L -53.0099983215332 -13.168000221252441 L -53.24800109863281 -12.848505973815918 L -53.266998291015625 -12.822999954223633 L -53.49800109863281 -12.46500015258789 L -53.6005744934082 -12.288000106811523 L -53.7130012512207 -12.093999862670898 L -53.90999984741211 -11.711999893188477 L -54.090999603271484 -11.317000389099121 L -54.25400161743164 -10.91100025177002 L -54.400001525878906 -10.491999626159668 L -54.53099822998047 -10.064000129699707 L -54.59033966064453 -9.838000297546387 L -51.37799835205078 -9.838000297546387 L -49.15599822998047 -9.838000297546387 L -49.152000427246094 -9.838000297546387 L -48.91990661621094 -9.838000297546387 L -48.705963134765625 -9.838000297546387 L -48.54032516479492 -9.838000297546387 L -48.42975997924805 -9.838000297546387 L -48.36333084106445 -9.838000297546387 L -48.334739685058594 -9.838000297546387 L -48.16699981689453 -10.255000114440918 L -47.92499923706055 -10.769000053405762 L -47.654998779296875 -11.267000198364258 L -47.356998443603516 -11.748000144958496 L -47.029998779296875 -12.211000442504883 L -46.96867752075195 -12.288000106811523 L -46.67399978637695 -12.657999992370605 L -46.2869987487793 -13.088000297546387 L -45.869998931884766 -13.50100040435791 L -45.42300033569336 -13.897000312805176 L -45.055999755859375 -14.18921184539795 L -44.946998596191406 -14.276000022888184 L -44.4379997253418 -14.644000053405762 L -43.89699935913086 -14.996999740600586 L -43.323001861572266 -15.333999633789062 L -42.715999603271484 -15.654999732971191 L -42.07600021362305 -15.958999633789062 L -41.40299987792969 -16.24799919128418 L -41.40299987792969 -16.14032745361328 L -41.40299987792969 -15.736379623413086 L -41.40299987792969 -15.357474327087402 L -41.40299987792969 -15.08442497253418 L -41.40299987792969 -14.887996673583984 L -41.40299987792969 -14.760650634765625 L -41.40299987792969 -14.686518669128418 L -41.40299987792969 -14.652000427246094 L -41.775001525878906 -14.38700008392334 L -42.124000549316406 -14.105999946594238 L -42.45000076293945 -13.8100004196167 L -42.75400161743164 -13.496999740600586 L -43.034000396728516 -13.168000221252441 L -43.29100036621094 -12.822999954223633 L -43.52299880981445 -12.46500015258789 L -43.62509536743164 -12.288000106811523 L -43.73699951171875 -12.093999862670898 L -43.935001373291016 -11.711999893188477 L -44.1150016784668 -11.317000389099121 L -44.27799987792969 -10.91100025177002 L -44.42499923706055 -10.491999626159668 L -44.55500030517578 -10.064000129699707 L -44.61485290527344 -9.838000297546387 L -41.40299987792969 -9.838000297546387 L -31.113000869750977 -9.838000297546387 L -28.841999053955078 -9.838000297546387 L -28.841999053955078 -11.708000183105469 L -28.76099967956543 -12.04699993133545 L -28.672000885009766 -12.170403480529785 L -28.587188720703125 -12.288000106811523 L -28.523000717163086 -12.376999855041504 L -28.132999420166016 -12.690999984741211 L -27.648000717163086 -12.953973770141602 L -27.600000381469727 -12.979999542236328 L -27.150999069213867 -13.15472412109375 L -26.937000274658203 -13.23799991607666 L -26.624000549316406 -13.327255249023438 L -26.16200065612793 -13.458999633789062 L -25.600000381469727 -13.57333755493164 L -25.29199981689453 -13.63599967956543 L -24.576000213623047 -13.734705924987793 L -24.349000930786133 -13.765999794006348 L -23.552000045776367 -13.83027458190918 L -23.35700035095215 -13.845999717712402 L -22.527999877929688 -13.867194175720215 L -22.34000015258789 -13.871999740600586 L -21.503999710083008 -13.871999740600586 L -20.479999542236328 -13.871999740600586 L -19.45599937438965 -13.871999740600586 L -18.43199920654297 -13.871999740600586 L -17.408000946044922 -13.871999740600586 L -16.384000778198242 -13.871999740600586 L -15.359999656677246 -13.871999740600586 L -14.336000442504883 -13.871999740600586 L -13.312000274658203 -13.871999740600586 L -12.288000106811523 -13.871999740600586 L -11.263999938964844 -13.871999740600586 L -10.239999771118164 -13.871999740600586 L -9.215999603271484 -13.871999740600586 L -8.192000389099121 -13.871999740600586 L -7.168000221252441 -13.871999740600586 L -6.144000053405762 -13.871999740600586 L -5.119999885559082 -13.871999740600586 L -4.0960001945495605 -13.871999740600586 L -3.072000026702881 -13.871999740600586 L -2.0480000972747803 -13.871999740600586 L -1.0240000486373901 -13.871999740600586 L 0 -13.871999740600586 L 1.0240000486373901 -13.871999740600586 L 2.0480000972747803 -13.871999740600586 L 3.072000026702881 -13.871999740600586 L 4.0960001945495605 -13.871999740600586 L 5.119999885559082 -13.871999740600586 L 6.144000053405762 -13.871999740600586 L 7.168000221252441 -13.871999740600586 L 8.192000389099121 -13.871999740600586 L 9.215999603271484 -13.871999740600586 L 10.239999771118164 -13.871999740600586 L 11.263999938964844 -13.871999740600586 L 12.288000106811523 -13.871999740600586 L 13.312000274658203 -13.871999740600586 L 14.336000442504883 -13.871999740600586 L 15.359999656677246 -13.871999740600586 L 16.384000778198242 -13.871999740600586 L 17.408000946044922 -13.871999740600586 L 18.43199920654297 -13.871999740600586 L 18.524999618530273 -13.871999740600586 L 19.45599937438965 -13.848198890686035 L 19.54199981689453 -13.845999717712402 L 20.479999542236328 -13.770355224609375 L 20.534000396728516 -13.765999794006348 L 21.476999282836914 -13.63599967956543 L 21.503999710083008 -13.63050651550293 L 22.347000122070312 -13.458999633789062 L 22.527999877929688 -13.407452583312988 L 22.863162994384766 -13.312000274658203 L 23.12299919128418 -13.23799991607666 L 23.552000045776367 -13.070806503295898 L 23.78499984741211 -12.979999542236328 L 24.31800079345703 -12.690999984741211 L 24.576000213623047 -12.483808517456055 L 24.708999633789062 -12.376999855041504 L 24.7731876373291 -12.288000106811523 L 24.94700050354004 -12.04699993133545 L 25.027000427246094 -11.708000183105469 L 25.027000427246094 -11.263999938964844 L 25.027000427246094 -10.239999771118164 L 25.027000427246094 -9.838000297546387 L 27.68600082397461 -9.838000297546387 L 38.28499984741211 -9.838000297546387 L 40.959999084472656 -9.838000297546387 L 41.50386047363281 -9.838000297546387 L 41.4370002746582 -10.086999893188477 L 41.30699920654297 -10.510000228881836 L 41.15999984741211 -10.928999900817871 L 40.99700164794922 -11.335000038146973 L 40.959999084472656 -11.41598892211914 L 40.81700134277344 -11.729000091552734 L 40.61899948120117 -12.112000465393066 L 40.517478942871094 -12.288000106811523 L 40.404998779296875 -12.482999801635742 L 40.17399978637695 -12.840999603271484 L 39.91600036621094 -13.190999984741211 L 39.63600158691406 -13.52299976348877 L 39.332000732421875 -13.836000442504883 L 39.00600051879883 -14.131999969482422 L 38.65700149536133 -14.40999984741211 L 38.28499984741211 -14.670000076293945 L 38.28499984741211 -16.24799919128418 L 38.95800018310547 -15.96500015258789 L 39.597999572753906 -15.663999557495117 L 40.20500183105469 -15.347000122070312 L 40.77899932861328 -15.012999534606934 L 40.959999084472656 -14.895567893981934 L 41.31999969482422 -14.661999702453613 L 41.82899856567383 -14.293999671936035 L 42.30500030517578 -13.914999961853027 L 42.75199890136719 -13.519000053405762 L 43.16899871826172 -13.105999946594238 L 43.555999755859375 -12.675999641418457 L 43.86500930786133 -12.288000106811523 L 43.9119987487793 -12.229000091552734 L 44.23899841308594 -11.765000343322754 L 44.5369987487793 -11.289999961853027 L 44.80699920654297 -10.79699993133545 L 45.04899978637695 -10.28600025177002 L 45.055999755859375 -10.268695831298828 L 45.23023223876953 -9.838000297546387 L 45.23545837402344 -9.838000297546387 L 45.27338409423828 -9.838000297546387 L 45.33567428588867 -9.838000297546387 L 46.03799819946289 -9.838000297546387 L 48.2599983215332 -9.838000297546387 L 49.152000427246094 -9.838000297546387 L 51.479286193847656 -9.838000297546387 L 51.41299819946289 -10.086999893188477 L 51.28200149536133 -10.510000228881836 L 51.13600158691406 -10.928999900817871 L 50.972999572753906 -11.335000038146973 L 50.79199981689453 -11.729000091552734 L 50.595001220703125 -12.112000465393066 L 50.493003845214844 -12.288000106811523 L 50.380001068115234 -12.482999801635742 L 50.14899826049805 -12.840999603271484 L 49.891998291015625 -13.190999984741211 L 49.611000061035156 -13.52299976348877 L 49.30799865722656 -13.836000442504883 L 49.152000427246094 -13.977643966674805 L 48.981998443603516 -14.131999969482422 L 48.63199996948242 -14.40999984741211 L 48.2599983215332 -14.670000076293945 L 48.2599983215332 -16.24799919128418 L 48.93299865722656 -15.96500015258789 L 49.152000427246094 -15.862001419067383 L 49.573001861572266 -15.663999557495117 L 50.180999755859375 -15.347000122070312 L 50.755001068115234 -15.012999534606934 L 51.29600143432617 -14.661999702453613 L 51.80400085449219 -14.293999671936035 L 52.28099822998047 -13.914999961853027 L 52.72800064086914 -13.519000053405762 L 53.14400100708008 -13.105999946594238 L 53.53099822998047 -12.675999641418457 L 53.840877532958984 -12.288000106811523 L 53.88800048828125 -12.229000091552734 L 54.21500015258789 -11.765000343322754 L 54.51300048828125 -11.289999961853027 L 54.78300094604492 -10.79699993133545 L 55.02399826049805 -10.28600025177002 L 55.205230712890625 -9.838000297546387 L 55.21045684814453 -9.838000297546387 L 55.248382568359375 -9.838000297546387 L 55.3086051940918 -9.838000297546387 L 56.013999938964844 -9.838000297546387 L 58.236000061035156 -9.838000297546387 L 61.439998626708984 -9.838000297546387 L 61.455284118652344 -9.838000297546387 L 61.439998626708984 -9.895417213439941 L 61.388999938964844 -10.086999893188477 L 61.257999420166016 -10.510000228881836 L 61.11199951171875 -10.928999900817871 L 60.948001861572266 -11.335000038146973 L 60.768001556396484 -11.729000091552734 L 60.56999969482422 -12.112000465393066 L 60.46847915649414 -12.288000106811523 L 60.35599899291992 -12.482999801635742 L 60.125 -12.840999603271484 L 59.867000579833984 -13.190999984741211 L 59.58700180053711 -13.52299976348877 L 59.284000396728516 -13.836000442504883 L 58.957000732421875 -14.131999969482422 L 58.608001708984375 -14.40999984741211 L 58.236000061035156 -14.670000076293945 L 58.236000061035156 -16.24799919128418 L 58.909000396728516 -15.96500015258789 L 59.54899978637695 -15.663999557495117 L 60.15599822998047 -15.347000122070312 L 60.72999954223633 -15.012999534606934 L 61.27199935913086 -14.661999702453613 L 61.439998626708984 -14.540299415588379 L 61.779998779296875 -14.293999671936035 L 62.25699996948242 -13.914999961853027 L 62.702999114990234 -13.519000053405762 L 63.119998931884766 -13.105999946594238 L 63.50699996948242 -12.675999641418457 L 63.81687927246094 -12.288000106811523 L 63.86399841308594 -12.229000091552734 L 64.19100189208984 -11.765000343322754 L 64.48799896240234 -11.289999961853027 L 64.75800323486328 -10.79699993133545 L 65 -10.28600025177002 L 65.18123626708984 -9.838000297546387 L 65.18645477294922 -9.838000297546387 L 65.22438049316406 -9.838000297546387 L 65.53600311279297 -9.838000297546387 L 65.98999786376953 -9.838000297546387 L 68.21099853515625 -9.838000297546387 L 71.43086242675781 -9.838000297546387 L 71.36399841308594 -10.086999893188477 L 71.23400115966797 -10.510000228881836 L 71.08699798583984 -10.928999900817871 L 70.92400360107422 -11.335000038146973 L 70.74299621582031 -11.729000091552734 L 70.5459976196289 -12.112000465393066 L 70.4444808959961 -12.288000106811523 L 70.33200073242188 -12.482999801635742 L 70.0999984741211 -12.840999603271484 L 69.84300231933594 -13.190999984741211 L 69.63200378417969 -13.44118595123291 L 69.56300354003906 -13.52299976348877 L 69.25900268554688 -13.836000442504883 L 68.93299865722656 -14.131999969482422 L 68.58399963378906 -14.40999984741211 L 68.21099853515625 -14.670000076293945 L 68.21099853515625 -16.24799919128418 L 68.88400268554688 -15.96500015258789 L 69.5250015258789 -15.663999557495117 L 69.63200378417969 -15.60811996459961 L 70.13200378417969 -15.347000122070312 L 70.70600128173828 -15.012999534606934 L 71.24700164794922 -14.661999702453613 L 71.75499725341797 -14.293999671936035 L 72.23200225830078 -13.914999961853027 L 72.67900085449219 -13.519000053405762 L 73.09600067138672 -13.105999946594238 L 73.48200225830078 -12.675999641418457 L 73.72799682617188 -12.367982864379883 L 73.79187774658203 -12.288000106811523 L 73.83899688720703 -12.229000091552734 L 74.16600036621094 -11.765000343322754 L 74.46399688720703 -11.289999961853027 L 74.73400115966797 -10.79699993133545 L 74.97599792480469 -10.28600025177002 L 75.15723419189453 -9.838000297546387 L 75.16260528564453 -9.838000297546387 L 75.19937896728516 -9.838000297546387 L 75.25960540771484 -9.838000297546387 L 75.96499633789062 -9.838000297546387 L 78.18699645996094 -9.838000297546387 L 81.40628814697266 -9.838000297546387 L 81.33999633789062 -10.086999893188477 L 81.20899963378906 -10.510000228881836 L 81.06300354003906 -10.928999900817871 L 80.89900207519531 -11.335000038146973 L 80.71900177001953 -11.729000091552734 L 80.52200317382812 -12.112000465393066 L 80.42000579833984 -12.288000106811523 L 80.30699920654297 -12.482999801635742 L 80.07599639892578 -12.840999603271484 L 79.81900024414062 -13.190999984741211 L 79.53800201416016 -13.52299976348877 L 79.23500061035156 -13.836000442504883 L 78.90899658203125 -14.131999969482422 L 78.55899810791016 -14.40999984741211 L 78.18699645996094 -14.670000076293945 L 78.18699645996094 -16.24799919128418 L 78.86000061035156 -15.96500015258789 L 79.5 -15.663999557495117 L 80.10700225830078 -15.347000122070312 L 80.68199920654297 -15.012999534606934 L 81.2229995727539 -14.661999702453613 L 81.73100280761719 -14.293999671936035 L 81.91999816894531 -14.143830299377441 L 82.20800018310547 -13.914999961853027 L 82.65499877929688 -13.519000053405762 L 83.07099914550781 -13.105999946594238 L 83.45800018310547 -12.675999641418457 L 83.76787567138672 -12.288000106811523 L 83.81500244140625 -12.229000091552734 L 84.14199829101562 -11.765000343322754 L 84.44000244140625 -11.289999961853027 L 84.70899963378906 -10.79699993133545 L 84.95099639892578 -10.28600025177002 L 85.16500091552734 -9.756999969482422 L 85.35099792480469 -9.210000038146973 L 85.50900268554688 -8.645000457763672 L 85.6128158569336 -8.192000389099121 L 85.64099884033203 -8.069000244140625 L 85.7490005493164 -7.47599983215332 L 85.83300018310547 -6.866000175476074 L 85.89299774169922 -6.238999843597412 L 85.92900085449219 -5.59499979019165 L 85.94100189208984 -4.934000015258789 L 85.92900085449219 -4.267000198364258 L 85.91950225830078 -4.0960001945495605 L 85.89299774169922 -3.61899995803833 L 85.83300018310547 -2.98799991607666 L 85.7490005493164 -2.375 L 85.64099884033203 -1.781000018119812 L 85.50900268554688 -1.2039999961853027 L 85.35099792480469 -0.6389999985694884 L 85.16500091552734 -0.09000000357627858 L 85.12873077392578 1.1102230246251565e-16 L 84.95099639892578 0.44100001454353344 L 84.70899963378906 0.9559999704360963 L 84.44000244140625 1.4529999494552612 L 84.14199829101562 1.934000015258789 L 83.81500244140625 2.3980000019073486 L 83.45800018310547 2.8440001010894775 L 83.07099914550781 3.2739999294281006 L 82.65499877929688 3.687000036239624 L 82.23509216308594 4.059000015258789 L 82.20800018310547 4.083000183105469 L 81.91999816894531 4.311830043792725 L 81.73100280761719 4.461999893188477 L 81.2229995727539 4.830999851226807 L 80.68199920654297 5.183000087738037 L 80.10700225830078 5.519999980926514 L 79.5 5.841000080108643 L 78.86000061035156 6.145999908447266 L 78.1893310546875 6.434000015258789 L 78.18699645996094 6.434999942779541 L 78.18699645996094 6.434000015258789 L 78.18699645996094 4.950773239135742 L 78.18699645996094 4.8726630210876465 L 78.18699645996094 4.839000225067139 L 78.55899810791016 4.573999881744385 L 78.90899658203125 4.293000221252441 L 79.12523651123047 4.0960001945495605 L 79.16584777832031 4.059000015258789 L 79.23500061035156 3.996000051498413 L 79.53800201416016 3.683000087738037 L 79.81900024414062 3.3540000915527344 L 80.07599639892578 3.009999990463257 L 80.30699920654297 2.6510000228881836 L 80.52200317382812 2.2809998989105225 L 80.71900177001953 1.8980000019073486 L 80.89900207519531 1.503999948501587 L 81.06300354003906 1.097000002861023 L 81.20899963378906 0.6790000200271608 L 81.33999633789062 0.2500000000000001 L 81.39933776855469 0.024000000208616368 L 78.18699645996094 0.024000000208616368 L 75.96499633789062 0.024000000208616368 L 75.73926544189453 0.024000000208616368 L 75.51205444335938 0.024000000208616368 L 75.34932708740234 0.024000000208616368 L 75.24031829833984 0.024000000208616368 L 75.17195129394531 0.024000000208616368 L 75.14405822753906 0.024000000208616368 L 74.97599792480469 0.44100001454353344 L 74.73400115966797 0.9559999704360963 L 74.46399688720703 1.4529999494552612 L 74.16600036621094 1.934000015258789 L 73.83899688720703 2.3980000019073486 L 73.72799682617188 2.536672353744507 L 73.48200225830078 2.8440001010894775 L 73.09600067138672 3.2739999294281006 L 72.67900085449219 3.687000036239624 L 72.25909423828125 4.059000015258789 L 72.23200225830078 4.083000183105469 L 72.21563720703125 4.0960001945495605 L 71.75499725341797 4.461999893188477 L 71.24700164794922 4.830999851226807 L 70.70600128173828 5.183000087738037 L 70.13200378417969 5.519999980926514 L 69.5250015258789 5.841000080108643 L 68.88400268554688 6.145999908447266 L 68.21332550048828 6.434000015258789 L 68.21099853515625 6.434999942779541 L 68.21099853515625 6.434000015258789 L 68.21099853515625 4.950773239135742 L 68.21099853515625 4.874323844909668 L 68.21099853515625 4.839000225067139 L 68.58399963378906 4.573999881744385 L 68.93299865722656 4.293000221252441 L 69.14923858642578 4.0960001945495605 L 69.18984985351562 4.059000015258789 L 69.25900268554688 3.996000051498413 L 69.56300354003906 3.683000087738037 L 69.63200378417969 3.6019248962402344 L 69.84300231933594 3.3540000915527344 L 70.0999984741211 3.009999990463257 L 70.33200073242188 2.6510000228881836 L 70.5459976196289 2.2809998989105225 L 70.74299621582031 1.8980000019073486 L 70.92400360107422 1.503999948501587 L 71.08699798583984 1.097000002861023 L 71.23400115966797 0.6790000200271608 L 71.36399841308594 0.2500000000000001 L 71.4238510131836 0.024000000208616368 L 69.63200378417969 0.024000000208616368 L 68.21099853515625 0.024000000208616368 L 65.98999786376953 0.024000000208616368 L 65.53600311279297 0.024000000208616368 L 65.37035369873047 0.024000000208616368 L 65.26432037353516 0.024000000208616368 L 65.1959457397461 0.024000000208616368 L 65.16806030273438 0.024000000208616368 L 65 0.44100001454353344 L 64.75800323486328 0.9559999704360963 L 64.48799896240234 1.4529999494552612 L 64.19100189208984 1.934000015258789 L 63.86399841308594 2.3980000019073486 L 63.50699996948242 2.8440001010894775 L 63.119998931884766 3.2739999294281006 L 62.702999114990234 3.687000036239624 L 62.28403091430664 4.059000015258789 L 62.25699996948242 4.083000183105469 L 61.779998779296875 4.461999893188477 L 61.439998626708984 4.708968639373779 L 61.27199935913086 4.830999851226807 L 60.72999954223633 5.183000087738037 L 60.15599822998047 5.519999980926514 L 59.54899978637695 5.841000080108643 L 58.909000396728516 6.145999908447266 L 58.23832702636719 6.434000015258789 L 58.236000061035156 6.434999942779541 L 58.236000061035156 6.434000015258789 L 58.236000061035156 4.947853088378906 L 58.236000061035156 4.873518466949463 L 58.236000061035156 4.839000225067139 L 58.608001708984375 4.573999881744385 L 58.957000732421875 4.293000221252441 L 59.17390060424805 4.0960001945495605 L 59.214637756347656 4.059000015258789 L 59.284000396728516 3.996000051498413 L 59.58700180053711 3.683000087738037 L 59.867000579833984 3.3540000915527344 L 60.125 3.009999990463257 L 60.35599899291992 2.6510000228881836 L 60.56999969482422 2.2809998989105225 L 60.768001556396484 1.8980000019073486 L 60.948001861572266 1.503999948501587 L 61.11199951171875 1.097000002861023 L 61.257999420166016 0.6790000200271608 L 61.388999938964844 0.2500000000000001 L 61.439998626708984 0.05575652047991764 L 61.44833755493164 0.024000000208616368 L 61.439998626708984 0.024000000208616368 L 58.236000061035156 0.024000000208616368 L 56.013999938964844 0.024000000208616368 L 55.788265228271484 0.024000000208616368 L 55.56105422973633 0.024000000208616368 L 55.3983268737793 0.024000000208616368 L 55.2893180847168 0.024000000208616368 L 55.219139099121094 0.024000000208616368 L 55.192054748535156 0.024000000208616368 L 55.02399826049805 0.44100001454353344 L 54.78300094604492 0.9559999704360963 L 54.51300048828125 1.4529999494552612 L 54.21500015258789 1.934000015258789 L 53.88800048828125 2.3980000019073486 M 56.00199890136719 -5.59499979019165 L 56.013999938964844 -4.934000015258789 L 56.00199890136719 -4.267000198364258 L 55.99250030517578 -4.0960001945495605 L 55.965999603271484 -3.61899995803833 L 55.90599822998047 -2.98799991607666 L 55.821998596191406 -2.375 L 55.74399948120117 -1.9459999799728394 L 55.751747131347656 -1.9459999799728394 L 55.78949737548828 -1.9459999799728394 L 55.8668098449707 -1.9459999799728394 L 55.985992431640625 -1.9459999799728394 L 56.013999938964844 -1.9459999799728394 L 58.236000061035156 -1.9459999799728394 L 61.80619430541992 -1.9459999799728394 L 61.816001892089844 -2.0290000438690186 L 61.8650016784668 -2.503000020980835 L 61.90599822998047 -2.9809999465942383 L 61.9370002746582 -3.4630000591278076 L 61.959999084472656 -3.9489998817443848 L 61.96389389038086 -4.0960001945495605 L 61.972999572753906 -4.440000057220459 L 61.97800064086914 -4.934000015258789 L 61.972999572753906 -5.427999973297119 L 61.959999084472656 -5.918000221252441 L 61.9370002746582 -6.4039998054504395 L 61.90599822998047 -6.886000156402588 L 61.8650016784668 -7.363999843597412 L 61.816001892089844 -7.8379998207092285 L 61.812408447265625 -7.868000030517578 L 58.236000061035156 -7.868000030517578 L 56.013999938964844 -7.868000030517578 L 55.96073532104492 -7.868000030517578 L 55.87493896484375 -7.868000030517578 L 55.810115814208984 -7.868000030517578 L 55.76802062988281 -7.868000030517578 L 55.750606536865234 -7.868000030517578 L 55.821998596191406 -7.47599983215332 L 55.90599822998047 -6.866000175476074 L 55.965999603271484 -6.238999843597412 L 56.00199890136719 -5.59499979019165 M 65.94200134277344 -3.61899995803833 L 65.88200378417969 -2.98799991607666 L 65.7979965209961 -2.375 L 65.72000122070312 -1.9459999799728394 L 65.72774505615234 -1.9459999799728394 L 65.76549530029297 -1.9459999799728394 L 65.98999786376953 -1.9459999799728394 L 68.21099853515625 -1.9459999799728394 L 71.7813720703125 -1.9459999799728394 L 71.79100036621094 -2.0290000438690186 L 71.84100341796875 -2.503000020980835 L 71.88099670410156 -2.9809999465942383 L 71.91300201416016 -3.4630000591278076 L 71.93499755859375 -3.9489998817443848 L 71.93919372558594 -4.0960001945495605 L 71.9489974975586 -4.440000057220459 L 71.9530029296875 -4.934000015258789 L 71.9489974975586 -5.427999973297119 L 71.93499755859375 -5.918000221252441 L 71.91300201416016 -6.4039998054504395 L 71.88099670410156 -6.886000156402588 L 71.84100341796875 -7.363999843597412 L 71.79100036621094 -7.8379998207092285 L 71.7874755859375 -7.868000030517578 L 68.21099853515625 -7.868000030517578 L 65.98999786376953 -7.868000030517578 L 65.93673706054688 -7.868000030517578 L 65.85093688964844 -7.868000030517578 L 65.78611755371094 -7.868000030517578 L 65.7440185546875 -7.868000030517578 L 65.72660827636719 -7.868000030517578 L 65.7979965209961 -7.47599983215332 L 65.88200378417969 -6.866000175476074 L 65.94200134277344 -6.238999843597412 L 65.97799682617188 -5.59499979019165 L 65.98999786376953 -4.934000015258789 L 65.97799682617188 -4.267000198364258 L 65.96849822998047 -4.0960001945495605 L 65.94200134277344 -3.61899995803833 M -79.07099914550781 -4.218999862670898 L -79.08300018310547 -4.880000114440918 L -79.07099914550781 -5.546000003814697 L -79.03500366210938 -6.195000171661377 L -78.9749984741211 -6.824999809265137 L -78.89099884033203 -7.438000202178955 L -78.81632995605469 -7.849368572235107 L -78.82506561279297 -7.84913444519043 L -79.08300018310547 -7.842220783233643 L -79.427001953125 -7.833000183105469 L -80.3499984741211 -7.789999961853027 L -81.20099639892578 -7.730999946594238 L -81.30500030517578 -7.721134185791016 L -81.91999816894531 -7.662794589996338 L -81.95999908447266 -7.658999919891357 L -82.60800170898438 -7.572999954223633 L -83.12999725341797 -7.478000164031982 L -83.51200103759766 -7.374000072479248 L -83.74500274658203 -7.264999866485596 L -83.822998046875 -7.1529998779296875 L -83.822998046875 -4.0960001945495605 L -83.822998046875 -2.6610000133514404 L -83.74500274658203 -2.5490000247955322 L -83.51200103759766 -2.440000057220459 L -83.12999725341797 -2.3359999656677246 L -82.60800170898438 -2.240000009536743 L -81.95999908447266 -2.1549999713897705 L -81.91999816894531 -2.1511528491973877 L -81.30500030517578 -2.0920026302337646 L -81.20099639892578 -2.0820000171661377 L -80.3499984741211 -2.0239999294281006 L -79.427001953125 -1.9809999465942383 L -79.08300018310547 -1.9717793464660645 L -78.94517517089844 -1.9680850505828857 L -78.88106536865234 -1.9663666486740112 L -78.83966827392578 -1.965257167816162 L -78.82303619384766 -1.9648112058639526 L -78.89099884033203 -2.3380000591278076 L -78.9749984741211 -2.947999954223633 L -79.03500366210938 -3.575000047683716 L -79.06412506103516 -4.0960001945495605 L -79.07099914550781 -4.218999862670898 M -71.3290023803711 -1.9459999799728394 L -69.10800170898438 -1.9459999799728394 L -68.96894073486328 -1.9459999799728394 L -68.90411376953125 -1.9459999799728394 L -68.86202239990234 -1.9459999799728394 L -68.8446044921875 -1.9459999799728394 L -68.91600036621094 -2.3380000591278076 L -69 -2.947999954223633 L -69.05999755859375 -3.575000047683716 L -69.08912658691406 -4.0960001945495605 L -69.09600067138672 -4.218999862670898 L -69.10800170898438 -4.880000114440918 L -69.09600067138672 -5.546000003814697 L -69.05999755859375 -6.195000171661377 L -69 -6.824999809265137 L -68.91600036621094 -7.438000202178955 L -68.83795166015625 -7.868000030517578 L -68.84574890136719 -7.868000030517578 L -69.10800170898438 -7.868000030517578 L -71.3290023803711 -7.868000030517578 L -73.72799682617188 -7.868000030517578 L -74.89934539794922 -7.868000030517578 L -74.90899658203125 -7.784999847412109 L -74.95899963378906 -7.310999870300293 L -74.9990005493164 -6.831999778747559 L -75.03099822998047 -6.349999904632568 L -75.0530014038086 -5.863999843597412 L -75.06700134277344 -5.374000072479248 L -75.07099914550781 -4.880000114440918 L -75.06700134277344 -4.386000156402588 L -75.0587158203125 -4.0960001945495605 L -75.0530014038086 -3.8959999084472656 L -75.03099822998047 -3.4100000858306885 L -74.9990005493164 -2.927000045776367 L -74.95899963378906 -2.4489998817443848 L -74.90899658203125 -1.975000023841858 L -74.90559387207031 -1.9459999799728394 L -73.72799682617188 -1.9459999799728394 L -71.3290023803711 -1.9459999799728394 M 46.0260009765625 -5.59499979019165 L 46.03799819946289 -4.934000015258789 L 46.0260009765625 -4.267000198364258 L 46.01649856567383 -4.0960001945495605 L 45.9900016784668 -3.61899995803833 L 45.93000030517578 -2.98799991607666 L 45.84600067138672 -2.375 L 45.768001556396484 -1.9459999799728394 L 45.77545928955078 -1.9459999799728394 L 45.81449890136719 -1.9459999799728394 L 45.891807556152344 -1.9459999799728394 L 46.01099395751953 -1.9459999799728394 L 46.03799819946289 -1.9459999799728394 L 48.2599983215332 -1.9459999799728394 L 49.152000427246094 -1.9459999799728394 L 51.83036804199219 -1.9459999799728394 L 51.84000015258789 -2.0290000438690186 L 51.88999938964844 -2.503000020980835 L 51.93000030517578 -2.9809999465942383 L 51.96200180053711 -3.4630000591278076 L 51.98400115966797 -3.9489998817443848 L 51.988189697265625 -4.0960001945495605 L 51.99800109863281 -4.440000057220459 L 52.00199890136719 -4.934000015258789 L 51.99800109863281 -5.427999973297119 L 51.98400115966797 -5.918000221252441 L 51.96200180053711 -6.4039998054504395 L 51.93000030517578 -6.886000156402588 L 51.88999938964844 -7.363999843597412 L 51.84000015258789 -7.8379998207092285 L 51.83647537231445 -7.868000030517578 L 49.152000427246094 -7.868000030517578 L 48.2599983215332 -7.868000030517578 L 46.03799819946289 -7.868000030517578 L 45.98473358154297 -7.868000030517578 L 45.8989372253418 -7.868000030517578 L 45.83411407470703 -7.868000030517578 L 45.79201889038086 -7.868000030517578 L 45.77460861206055 -7.868000030517578 L 45.84600067138672 -7.47599983215332 L 45.93000030517578 -6.866000175476074 L 45.9900016784668 -6.238999843597412 L 46.0260009765625 -5.59499979019165 M -49.15599822998047 -4.880000114440918 L -49.152000427246094 -5.1020002365112305 L -49.14400100708008 -5.546000003814697 L -49.108001708984375 -6.195000171661377 L -49.04800033569336 -6.824999809265137 L -48.9640007019043 -7.438000202178955 L -48.885948181152344 -7.868000030517578 L -48.89345932006836 -7.868000030517578 L -49.152000427246094 -7.868000030517578 L -49.15599822998047 -7.868000030517578 L -51.37799835205078 -7.868000030517578 L -54.94834899902344 -7.868000030517578 L -54.95800018310547 -7.784999847412109 L -55.007999420166016 -7.310999870300293 L -55.04800033569336 -6.831999778747559 L -55.08000183105469 -6.349999904632568 L -55.10200119018555 -5.863999843597412 L -55.11600112915039 -5.374000072479248 L -55.119998931884766 -4.880000114440918 L -55.11600112915039 -4.386000156402588 L -55.10771560668945 -4.0960001945495605 L -55.10200119018555 -3.8959999084472656 L -55.08000183105469 -3.4100000858306885 L -55.04800033569336 -2.927000045776367 L -55.007999420166016 -2.4489998817443848 L -54.95800018310547 -1.975000023841858 L -54.954593658447266 -1.9459999799728394 L -51.37799835205078 -1.9459999799728394 L -49.15599822998047 -1.9459999799728394 L -49.152000427246094 -1.9459999799728394 L -49.016937255859375 -1.9459999799728394 L -48.95211410522461 -1.9459999799728394 L -48.91001892089844 -1.9459999799728394 L -48.892608642578125 -1.9459999799728394 L -48.9640007019043 -2.3380000591278076 L -49.04800033569336 -2.947999954223633 L -49.108001708984375 -3.575000047683716 L -49.137123107910156 -4.0960001945495605 L -49.14400100708008 -4.218999862670898 L -49.152000427246094 -4.659666538238525 L -49.15599822998047 -4.880000114440918 M 77.77400207519531 -2.0820000171661377 L 77.8239974975586 -2.086808919906616 L 78.18699645996094 -2.1217219829559326 L 78.53299713134766 -2.1549999713897705 L 79.18099975585938 -2.240000009536743 L 79.7030029296875 -2.3359999656677246 L 80.08499908447266 -2.440000057220459 L 80.31800079345703 -2.5490000247955322 L 80.39600372314453 -2.6600000858306885 L 80.39600372314453 -4.0960001945495605 L 80.39600372314453 -7.1529998779296875 L 80.31800079345703 -7.264999866485596 L 80.08499908447266 -7.374000072479248 L 79.7030029296875 -7.478000164031982 L 79.18099975585938 -7.572999954223633 L 78.53299713134766 -7.658999919891357 L 78.18699645996094 -7.691822052001953 L 77.8239974975586 -7.726256847381592 L 77.77400207519531 -7.730999946594238 L 76.9219970703125 -7.789999961853027 L 76 -7.833000183105469 L 75.96499633789062 -7.833938121795654 L 75.9123306274414 -7.835350036621094 L 75.82763671875 -7.837620258331299 L 75.76385498046875 -7.839329719543457 L 75.72281646728516 -7.840429782867432 L 75.70655059814453 -7.840865612030029 L 75.77300262451172 -7.47599983215332 L 75.85700225830078 -6.866000175476074 L 75.91699981689453 -6.238999843597412 L 75.9530029296875 -5.59499979019165 L 75.96499633789062 -4.934000015258789 L 75.9530029296875 -4.267000198364258 L 75.94349670410156 -4.0960001945495605 L 75.91699981689453 -3.61899995803833 L 75.85700225830078 -2.98799991607666 L 75.77300262451172 -2.375 L 75.69984436035156 -1.9726451635360718 L 75.70890045166016 -1.9728971719741821 L 75.74832916259766 -1.9739946126937866 L 75.8255844116211 -1.9761451482772827 L 75.95155334472656 -1.9796515703201294 L 75.96499633789062 -1.9800257682800293 L 76 -1.9809999465942383 L 76.9219970703125 -2.0239999294281006 L 77.77400207519531 -2.0820000171661377 M -58.869747161865234 -7.868000030517578 L -59.13199996948242 -7.868000030517578 L -61.354000091552734 -7.868000030517578 L -64.9241714477539 -7.868000030517578 L -64.93399810791016 -7.784999847412109 L -64.98300170898438 -7.310999870300293 L -65.02400207519531 -6.831999778747559 L -65.05500030517578 -6.349999904632568 L -65.0780029296875 -5.863999843597412 L -65.09100341796875 -5.374000072479248 L -65.09600067138672 -4.880000114440918 L -65.09100341796875 -4.386000156402588 L -65.08330535888672 -4.0960001945495605 L -65.0780029296875 -3.8959999084472656 L -65.05500030517578 -3.4100000858306885 L -65.02400207519531 -2.927000045776367 L -64.98300170898438 -2.4489998817443848 L -64.93399810791016 -1.975000023841858 L -64.93052673339844 -1.9459999799728394 L -61.354000091552734 -1.9459999799728394 L -59.13199996948242 -1.9459999799728394 L -58.99293899536133 -1.9459999799728394 L -58.92811584472656 -1.9459999799728394 L -58.88602066040039 -1.9459999799728394 L -58.86860656738281 -1.9459999799728394 L -58.939998626708984 -2.3380000591278076 L -59.02399826049805 -2.947999954223633 L -59.08399963378906 -3.575000047683716 L -59.11312484741211 -4.0960001945495605 L -59.119998931884766 -4.218999862670898 L -59.13199996948242 -4.880000114440918 L -59.119998931884766 -5.546000003814697 L -59.08399963378906 -6.195000171661377 L -59.02399826049805 -6.824999809265137 L -58.939998626708984 -7.438000202178955 L -58.8619499206543 -7.868000030517578 L -58.869747161865234 -7.868000030517578 M -45.14400100708008 -4.880000114440918 L -45.13999938964844 -4.386000156402588 L -45.1317138671875 -4.0960001945495605 L -45.125999450683594 -3.8959999084472656 L -45.104000091552734 -3.4100000858306885 L -45.073001861572266 -2.927000045776367 L -45.055999755859375 -2.72880482673645 L -45.03200149536133 -2.4489998817443848 L -44.983001708984375 -1.975000023841858 L -44.979530334472656 -1.9459999799728394 L -41.40299987792969 -1.9459999799728394 L -37.4739990234375 -1.9459999799728394 L -36.479000091552734 -1.9550000429153442 L -35.50899887084961 -1.9809999465942383 L -34.58599853515625 -2.0239999294281006 L -33.73500061035156 -2.0820000171661377 L -32.97600173950195 -2.1549999713897705 L -32.768001556396484 -2.182283878326416 L -32.327999114990234 -2.240000009536743 L -31.805999755859375 -2.3359999656677246 L -31.423999786376953 -2.440000057220459 L -31.19099998474121 -2.5490000247955322 L -31.113000869750977 -2.6610000133514404 L -31.113000869750977 -7.1529998779296875 L -31.19099998474121 -7.264999866485596 L -31.423999786376953 -7.374000072479248 L -31.805999755859375 -7.478000164031982 L -32.327999114990234 -7.572999954223633 L -32.768001556396484 -7.631394863128662 L -32.97600173950195 -7.658999919891357 L -33.73500061035156 -7.730999946594238 L -34.58599853515625 -7.789999961853027 L -35.50899887084961 -7.833000183105469 L -36.479000091552734 -7.859000205993652 L -37.4739990234375 -7.868000030517578 L -41.40299987792969 -7.868000030517578 L -44.973175048828125 -7.868000030517578 L -44.983001708984375 -7.784999847412109 L -45.03200149536133 -7.310999870300293 L -45.055999755859375 -7.030609607696533 L -45.073001861572266 -6.831999778747559 L -45.104000091552734 -6.349999904632568 L -45.125999450683594 -5.863999843597412 L -45.13999938964844 -5.374000072479248 L -45.14400100708008 -4.880000114440918 M -20.479999542236328 0.4601879417896272 L -19.68199920654297 0.47499999403953563 L -18.43199920654297 0.47499999403953563 L -16.384000778198242 0.47499999403953563 L -14.336000442504883 0.47499999403953563 L -12.288000106811523 0.47499999403953563 L -10.239999771118164 0.47499999403953563 L -8.192000389099121 0.47499999403953563 L -6.144000053405762 0.47499999403953563 L -4.0960001945495605 0.47499999403953563 L -2.0480000972747803 0.47499999403953563 L 0 0.47499999403953563 L 2.0480000972747803 0.47499999403953563 L 4.0960001945495605 0.47499999403953563 L 6.144000053405762 0.47499999403953563 L 8.192000389099121 0.47499999403953563 L 10.239999771118164 0.47499999403953563 L 12.288000106811523 0.47499999403953563 L 14.336000442504883 0.47499999403953563 L 14.954000473022461 0.47499999403953563 L 15.815999984741211 0.45899999141693126 L 16.384000778198242 0.42658144235610973 L 16.656999588012695 0.41100001335144054 L 17.45599937438965 0.33300000429153453 L 18.19300079345703 0.22699999809265148 L 18.43199920654297 0.1789817363023759 L 18.850000381469727 0.09499999880790722 L 19.1944522857666 1.1102230246251565e-16 L 19.41200065612793 -0.05999999865889538 L 19.86400032043457 -0.23399999737739552 L 20.194000244140625 -0.423000007867813 L 20.395999908447266 -0.6209999918937682 L 20.464000701904297 -0.8240000009536742 L 20.464000701904297 -4.0960001945495605 L 20.464000701904297 -8.192000389099121 L 20.464000701904297 -8.98900032043457 L 20.395999908447266 -9.192999839782715 L 20.194000244140625 -9.390999794006348 L 19.86400032043457 -9.579000473022461 L 19.41200065612793 -9.753000259399414 L 18.850000381469727 -9.907999992370605 L 18.19300079345703 -10.039999961853027 L 17.45599937438965 -10.147000312805176 L 16.656999588012695 -10.225000381469727 L 16.394187927246094 -10.239999771118164 L 16.384000778198242 -10.240581512451172 L 15.815999984741211 -10.27299976348877 L 14.954000473022461 -10.288999557495117 L 12.288000106811523 -10.288999557495117 L 8.192000389099121 -10.288999557495117 L 4.0960001945495605 -10.288999557495117 L 0 -10.288999557495117 L -4.0960001945495605 -10.288999557495117 L -8.192000389099121 -10.288999557495117 L -12.288000106811523 -10.288999557495117 L -16.384000778198242 -10.288999557495117 L -19.68199920654297 -10.288999557495117 L -20.479999542236328 -10.274188041687012 L -20.54400062561035 -10.27299976348877 L -21.12150001525879 -10.239999771118164 L -21.384000778198242 -10.225000381469727 L -22.183000564575195 -10.147000312805176 L -22.92099952697754 -10.039999961853027 L -23.577999114990234 -9.907999992370605 L -24.139999389648438 -9.753000259399414 L -24.576000213623047 -9.584787368774414 L -24.590999603271484 -9.579000473022461 L -24.922000885009766 -9.390999794006348 L -25.124000549316406 -9.192999839782715 L -25.191999435424805 -8.98900032043457 L -25.191999435424805 -8.192000389099121 L -25.191999435424805 -4.0960001945495605 L -25.191999435424805 -0.8240000009536742 L -25.124000549316406 -0.6209999918937682 L -24.922000885009766 -0.423000007867813 L -24.590999603271484 -0.23399999737739552 L -24.576000213623047 -0.2282128632068633 L -24.139999389648438 -0.05999999865889538 L -23.92245101928711 1.1102230246251565e-16 L -23.577999114990234 0.09499999880790722 L -22.92099952697754 0.22699999809265148 L -22.527999877929688 0.28344714641571056 L -22.183000564575195 0.33300000429153453 L -21.384000778198242 0.41100001335144054 L -20.54400062561035 0.45899999141693126 L -20.479999542236328 0.4601879417896272 M 34.047000885009766 -1.9459999799728394 L 38.28499984741211 -1.9459999799728394 L 40.959999084472656 -1.9459999799728394 L 41.855194091796875 -1.9459999799728394 L 41.8650016784668 -2.0290000438690186 L 41.91400146484375 -2.503000020980835 L 41.95500183105469 -2.9809999465942383 L 41.986000061035156 -3.4630000591278076 L 42.00899887084961 -3.9489998817443848 L 42.01289367675781 -4.0960001945495605 L 42.02199935913086 -4.440000057220459 L 42.0260009765625 -4.934000015258789 L 42.02199935913086 -5.427999973297119 L 42.00899887084961 -5.918000221252441 L 41.986000061035156 -6.4039998054504395 L 41.95500183105469 -6.886000156402588 L 41.91400146484375 -7.363999843597412 L 41.8650016784668 -7.8379998207092285 L 41.861412048339844 -7.868000030517578 L 40.959999084472656 -7.868000030517578 L 38.28499984741211 -7.868000030517578 L 34.047000885009766 -7.868000030517578 L 33.051998138427734 -7.859000205993652 L 32.768001556396484 -7.851395606994629 L 32.08100128173828 -7.833000183105469 L 31.159000396728516 -7.789999961853027 L 30.308000564575195 -7.730999946594238 L 29.548999786376953 -7.658999919891357 L 28.900999069213867 -7.572999954223633 L 28.378999710083008 -7.478000164031982 L 27.996999740600586 -7.374000072479248 L 27.763999938964844 -7.264999866485596 L 27.68600082397461 -7.1529998779296875 L 27.68600082397461 -4.0960001945495605 L 27.68600082397461 -2.6600000858306885 L 27.763999938964844 -2.5490000247955322 L 27.996999740600586 -2.440000057220459 L 28.378999710083008 -2.3359999656677246 L 28.900999069213867 -2.240000009536743 L 29.548999786376953 -2.1549999713897705 L 30.308000564575195 -2.0820000171661377 L 31.159000396728516 -2.0239999294281006 L 32.08100128173828 -1.9809999465942383 L 32.768001556396484 -1.9618970155715942 L 33.051998138427734 -1.9539999961853027 L 34.047000885009766 -1.9459999799728394 z" fill="none" stroke="rgb(255,0,0)" stroke-width="0.001mm" />
</svg>